HIERARCHY
ROOT Hips
{
	OFFSET 0.00000 0.00000 0.00000
	CHANNELS 6 Xposition Yposition Zposition Zrotation Yrotation Xrotation 
	JOINT LHipJoint
	{
		OFFSET 0 0 0
		CHANNELS 3 Zrotation Yrotation Xrotation
		JOINT LeftUpLeg
		{
			OFFSET 1.64577 -1.42384 0.94276
			CHANNELS 3 Zrotation Yrotation Xrotation
			JOINT LeftLeg
			{
				OFFSET 2.11538 -5.81197 0.00000
				CHANNELS 3 Zrotation Yrotation Xrotation
				JOINT LeftFoot
				{
					OFFSET 2.36541 -6.49893 0.00000
					CHANNELS 3 Zrotation Yrotation Xrotation
					JOINT LeftToeBase
					{
						OFFSET 0.17759 -0.48793 1.73865
						CHANNELS 3 Zrotation Yrotation Xrotation
						End Site
						{
							OFFSET 0.00000 -0.00000 0.91205
						}
					}
				}
			}
		}
	}
	JOINT RHipJoint
	{
		OFFSET 0 0 0
		CHANNELS 3 Zrotation Yrotation Xrotation
		JOINT RightUpLeg
		{
			OFFSET -1.43750 -1.42384 0.94276
			CHANNELS 3 Zrotation Yrotation Xrotation
			JOINT RightLeg
			{
				OFFSET -2.10480 -5.78291 0.00000
				CHANNELS 3 Zrotation Yrotation Xrotation
				JOINT RightFoot
				{
					OFFSET -2.34880 -6.45329 0.00000
					CHANNELS 3 Zrotation Yrotation Xrotation
					JOINT RightToeBase
					{
						OFFSET -0.22842 -0.62757 1.80469
						CHANNELS 3 Zrotation Yrotation Xrotation
						End Site
						{
							OFFSET -0.00000 -0.00000 0.95886
						}
					}
				}
			}
		}
	}
	JOINT LowerBack
	{
		OFFSET 0 0 0
		CHANNELS 3 Zrotation Yrotation Xrotation
		JOINT Spine
		{
			OFFSET 0.06217 1.93758 -0.49272
			CHANNELS 3 Zrotation Yrotation Xrotation
			JOINT Spine1
			{
				OFFSET -0.03114 2.03621 -0.05830
				CHANNELS 3 Zrotation Yrotation Xrotation
				JOINT Neck
				{
					OFFSET 0 0 0
					CHANNELS 3 Zrotation Yrotation Xrotation
					JOINT Neck1
					{
						OFFSET 0.04421 1.41010 0.26562
						CHANNELS 3 Zrotation Yrotation Xrotation
						JOINT Head
						{
							OFFSET -0.13407 1.43847 0.06181
							CHANNELS 3 Zrotation Yrotation Xrotation
							End Site
							{
								OFFSET -0.04980 1.45844 -0.00689
							}
						}
					}
				}
				JOINT LeftShoulder
				{
					OFFSET 0 0 0
					CHANNELS 3 Zrotation Yrotation Xrotation
					JOINT LeftArm
					{
						OFFSET 2.18382 1.47753 -0.35694
						CHANNELS 3 Zrotation Yrotation Xrotation
						JOINT LeftForeArm
						{
							OFFSET 5.05460 -0.00000 0.00000
							CHANNELS 3 Zrotation Yrotation Xrotation
							JOINT LeftHand
							{
								OFFSET 3.39013 -0.00000 0.00000
								CHANNELS 3 Zrotation Yrotation Xrotation
								JOINT LeftFingerBase
								{
									OFFSET 0 0 0
									CHANNELS 3 Zrotation Yrotation Xrotation
									JOINT LeftHandIndex1
									{
										OFFSET 0.57242 -0.00000 -0.00000
										CHANNELS 3 Zrotation Yrotation Xrotation
										End Site
										{
											OFFSET 0.46150 -0.00000 -0.00000
										}
									}
								}
								JOINT LThumb
								{
									OFFSET 0 0 0
									CHANNELS 3 Zrotation Yrotation Xrotation
									End Site
									{
										OFFSET 0.46855 -0.00000 0.46855
									}
								}
							}
						}
					}
				}
				JOINT RightShoulder
				{
					OFFSET 0 0 0
					CHANNELS 3 Zrotation Yrotation Xrotation
					JOINT RightArm
					{
						OFFSET -2.06033 1.72839 -0.47437
						CHANNELS 3 Zrotation Yrotation Xrotation
						JOINT RightForeArm
						{
							OFFSET -5.07010 -0.00000 0.00000
							CHANNELS 3 Zrotation Yrotation Xrotation
							JOINT RightHand
							{
								OFFSET -3.14957 -0.00000 -0.00000
								CHANNELS 3 Zrotation Yrotation Xrotation
								JOINT RightFingerBase
								{
									OFFSET 0 0 0
									CHANNELS 3 Zrotation Yrotation Xrotation
									JOINT RightHandIndex1
									{
										OFFSET -0.71819 -0.00000 -0.00000
										CHANNELS 3 Zrotation Yrotation Xrotation
										End Site
										{
											OFFSET -0.57902 -0.00000 -0.00000
										}
									}
								}
								JOINT RThumb
								{
									OFFSET 0 0 0
									CHANNELS 3 Zrotation Yrotation Xrotation
									End Site
									{
										OFFSET -0.58786 -0.00000 0.58786
									}
								}
							}
						}
					}
				}
			}
		}
	}
}
MOTION
Frames: 15
Frame Time: .0083333
5.9272 15.1040 1.7965 183.2650 12.5488 175.4430 0.0000 0.0000 0.0000 -23.9186 -15.0911 16.3260 1.6586 8.1156 23.0657 5.6443 15.2721 -51.2626 0.8645 5.9288 16.5780 0.0000 0.0000 0.0000 29.7470 18.4479 12.8578 -1.8131 -8.4655 24.1371 -2.3966 -14.5751 -37.3192 -2.0900 9.0511 -25.9554 -1.1016 1.4924 2.9593 -2.6540 1.9776 -4.2878 -2.3139 1.0390 -6.0544 15.6848 9.4094 -10.7265 -22.3349 15.4401 12.3130 -8.2340 7.1073 8.6882 -0.0000 0.0000 0.0000 5.7294 14.1444 -35.3876 12.0957 -19.9480 -2.1348 -0.0000 -0.0000 18.7375 43.9515 4.7657 4.5793 -7.1250 0.0000 -0.0000 14.4984 36.2459 -3.2043 -0.0000 0.0000 0.0000 -0.0889 -5.4115 -52.8761 -13.2830 21.7005 -2.5570 0.0000 0.0000 9.6564 -31.1352 5.0325 -3.0333 7.1250 -0.0000 -0.0000 -3.3182 -24.1070 -1.6762
5.9077 15.1127 1.7970 182.4210 12.6576 175.6870 0.0000 0.0000 0.0000 -24.7935 -15.2126 15.6693 1.7115 8.2373 23.4373 5.6933 15.3051 -51.4520 0.8483 5.8745 16.4208 0.0000 0.0000 0.0000 28.2160 17.9309 12.1588 -1.7599 -8.3469 23.7726 -2.2747 -14.1948 -36.4054 -2.2529 9.3741 -26.9727 -1.6279 1.4955 2.5407 -2.9558 1.9817 -4.4334 -2.3249 1.0733 -5.9757 15.5865 9.4620 -10.6880 -22.1910 15.5841 12.5746 -8.1463 7.1796 8.7735 -0.0000 0.0000 0.0000 5.2015 14.6725 -34.5370 12.3191 -20.2815 -2.2117 -0.0000 -0.0000 17.3666 43.7350 5.2786 5.0304 -7.1250 0.0000 -0.0000 14.4100 36.9160 -2.9407 -0.0000 0.0000 0.0000 0.3813 -8.6037 -41.6906 -14.0555 22.8140 -2.8496 0.0000 -0.0000 -1.9001 -32.6388 3.7913 -2.4250 7.1250 -0.0000 -0.0000 -4.5306 -25.4781 -2.1474
5.9296 15.1022 1.7933 184.7110 13.2495 175.6860 0.0000 0.0000 0.0000 -22.3166 -14.7223 15.8816 1.7914 8.4173 23.9890 5.8526 14.7471 -51.7316 0.8660 5.9339 16.5927 0.0000 0.0000 0.0000 31.1985 18.3409 13.2977 -1.6779 -8.1601 23.2016 -2.2873 -14.4139 -36.6363 -2.0333 8.9351 -25.5927 0.3291 1.5657 2.9037 -2.2339 2.1535 -4.3424 -2.6894 1.0595 -6.0384 15.3625 9.5529 -10.9452 -21.7782 15.8269 13.3643 -7.9221 7.2774 9.0709 0.0000 -0.0000 0.0000 4.8318 14.3838 -36.9089 12.1128 -19.9735 -2.1407 -0.0000 -0.0000 19.2992 43.4104 5.5433 5.2213 -7.1250 0.0000 -0.0000 14.1808 37.2433 -2.7747 0.0000 -0.0000 0.0000 0.7453 -7.5549 -46.7184 -13.8396 22.5050 -2.7664 0.0000 0.0000 2.8205 -32.2408 4.7956 -3.0184 7.1250 -0.0000 -0.0000 -4.1560 -24.3165 -2.0812
5.9356 15.0964 1.7900 185.4410 13.5502 175.6360 0.0000 0.0000 0.0000 -21.5727 -14.4997 15.9446 1.8440 8.5333 24.3461 5.9524 14.4603 -51.9410 0.8852 5.9975 16.7771 0.0000 0.0000 0.0000 32.0763 18.3118 13.7639 -1.6247 -8.0362 22.8240 -2.3285 -14.1516 -36.6533 -1.8602 8.5686 -24.4550 0.9893 1.5742 3.0010 -2.0229 2.1993 -4.3082 -2.8453 1.0508 -6.0406 15.3039 9.5569 -11.0538 -21.5120 15.9120 13.9533 -7.8102 7.3140 9.2718 -0.0000 -0.0000 0.0000 4.8379 15.2378 -34.0329 12.2788 -20.2214 -2.1977 -0.0000 -0.0000 15.8336 43.4767 6.4062 6.0392 -7.1250 0.0000 -0.0000 14.3918 38.3933 -2.4009 -0.0000 -0.0000 0.0000 1.1343 -7.5530 -47.8618 -13.8570 22.5299 -2.7731 0.0000 0.0000 3.7739 -32.3176 5.8675 -3.7002 7.1250 -0.0000 -0.0000 -4.1259 -23.0511 -2.1864
5.9316 15.0966 1.7875 185.4740 13.7790 175.6620 0.0000 0.0000 0.0000 -21.6131 -14.4789 15.7251 1.9165 8.6900 24.8303 6.0529 14.3481 -52.2372 0.8814 5.9848 16.7404 0.0000 0.0000 0.0000 31.9478 18.0942 13.8947 -1.5526 -7.8645 22.3031 -2.2189 -14.2017 -36.1171 -1.9468 8.7545 -25.0302 1.1354 1.6376 2.9138 -2.0752 2.2908 -4.2976 -2.9849 1.0898 -5.9671 15.3720 9.5248 -11.1299 -21.3347 15.9006 14.3954 -7.7685 7.3095 9.4188 0.0000 -0.0000 0.0000 4.6925 15.4590 -33.3082 12.3438 -20.3182 -2.2202 -0.0000 -0.0000 14.1289 43.3943 7.1594 6.7204 -7.1250 0.0000 -0.0000 14.4534 39.3814 -2.0512 0.0000 -0.0000 0.0000 1.5938 -8.6036 -45.5243 -14.0573 22.8166 -2.8503 0.0000 0.0000 1.3198 -32.5762 5.8375 -3.7182 7.1250 -0.0000 -0.0000 -4.3180 -23.0672 -2.2872
5.9271 15.0939 1.7853 185.4800 14.0633 175.6640 0.0000 0.0000 0.0000 -21.6610 -14.3398 15.6893 1.9327 8.7244 24.9370 6.1120 14.3703 -52.4530 0.8926 6.0218 16.8476 0.0000 0.0000 0.0000 31.8702 18.0435 13.9020 -1.5379 -7.8288 22.1954 -2.2232 -13.9292 -35.9341 -1.9272 8.7128 -24.9009 1.2700 1.7254 2.8663 -2.1470 2.4151 -4.3180 -3.1437 1.1448 -5.9463 15.5953 9.4802 -11.0102 -21.3047 15.8863 14.7121 -7.8136 7.3219 9.5149 -0.0000 -0.0000 0.0000 4.3813 15.3925 -33.7422 12.4021 -20.4049 -2.2405 -0.0000 -0.0000 13.3490 43.5054 8.0567 7.5773 -7.1250 0.0000 -0.0000 14.7122 40.5773 -1.6449 -0.0000 -0.0000 0.0000 1.8827 -11.1654 -37.2351 -14.5599 23.5295 -3.0481 0.0000 -0.0000 -7.0134 -33.7318 4.6949 -3.1282 7.1250 -0.0000 -0.0000 -5.2701 -24.3420 -2.6400
5.9216 15.0907 1.7836 185.5600 14.4294 175.6720 0.0000 0.0000 0.0000 -21.6068 -14.1258 15.7293 1.9255 8.7090 24.8893 6.2026 14.1829 -52.6777 0.9581 6.2327 17.4612 0.0000 0.0000 0.0000 31.9172 18.1245 13.8980 -1.5463 -7.8491 22.2567 -2.1346 -14.0724 -35.5692 -2.1052 9.0819 -26.0519 1.5191 1.8378 2.7997 -2.2022 2.5805 -4.3729 -3.3524 1.2152 -5.9436 15.7136 9.4223 -10.8194 -21.1437 15.8928 15.1638 -7.7943 7.3532 9.6244 -0.0000 0.0000 0.0000 4.0991 15.2310 -34.3010 12.4233 -20.4364 -2.2479 -0.0000 -0.0000 12.3456 43.7082 8.7595 8.2824 -7.1250 0.0000 -0.0000 15.0234 41.5283 -1.3197 -0.0000 0.0000 0.0000 2.5524 -9.1595 -46.4744 -14.1235 22.9109 -2.8760 0.0000 0.0000 2.1113 -32.2946 5.3948 -3.4007 7.1250 -0.0000 -0.0000 -4.1480 -23.6084 -2.1451
5.9161 15.0902 1.7838 185.5210 14.8316 175.6690 0.0000 0.0000 0.0000 -21.5847 -13.7610 15.6752 1.9099 8.6758 24.7862 6.2223 14.0889 -52.7020 0.9700 6.2704 17.5709 0.0000 0.0000 0.0000 31.8741 18.3336 13.8874 -1.5630 -7.8894 22.3786 -1.8374 -15.1097 -34.7746 -2.6955 10.1850 -29.5779 1.6649 1.9577 2.7106 -2.2734 2.7491 -4.4089 -3.5181 1.2924 -5.9099 15.5170 9.2925 -10.6974 -20.7596 15.8003 15.7040 -7.6545 7.3287 9.7062 0.0000 -0.0000 0.0000 3.7602 15.1045 -34.9476 12.4675 -20.5021 -2.2634 -0.0000 -0.0000 11.0992 43.8551 9.3502 8.8724 -7.1250 0.0000 -0.0000 15.2678 42.3257 -1.0337 0.0000 -0.0000 0.0000 2.9943 -9.9327 -44.9434 -14.3330 23.2087 -2.9581 0.0000 0.0000 0.1718 -32.1738 4.3648 -2.7411 7.1250 -0.0000 -0.0000 -4.1391 -24.8270 -2.0237
5.9098 15.0899 1.7857 185.4100 15.2686 175.6720 0.0000 0.0000 0.0000 -21.6197 -13.3323 15.5717 1.8886 8.6301 24.6449 6.1713 14.2697 -52.6104 0.9258 6.1299 17.1617 0.0000 0.0000 0.0000 31.8136 18.7085 13.9075 -1.5836 -7.9387 22.5280 -1.8218 -15.1572 -34.7273 -2.7253 10.2366 -29.7463 1.7299 2.0587 2.5850 -2.3671 2.8851 -4.3987 -3.6555 1.3581 -5.8099 15.3569 9.1175 -10.7120 -20.4504 15.6219 16.2425 -7.5598 7.2513 9.8091 0.0000 -0.0000 0.0000 3.4270 15.1522 -35.6922 12.5216 -20.5823 -2.2824 -0.0000 -0.0000 10.1396 44.1422 10.1488 9.7041 -7.1250 0.0000 -0.0000 15.6881 43.4185 -0.6288 0.0000 -0.0000 0.0000 3.1518 -12.8890 -34.9488 -15.0288 24.1862 -3.2377 0.0000 -0.0000 -10.5125 -33.3850 2.3359 -1.5386 7.1250 -0.0000 -0.0000 -5.2064 -27.1733 -2.2627
5.9031 15.0893 1.7889 185.3250 15.7322 175.6540 0.0000 0.0000 0.0000 -21.7250 -13.0276 15.5929 1.8650 8.5790 24.4871 6.1855 14.3924 -52.7172 0.9428 6.1844 17.3203 0.0000 0.0000 0.0000 31.8226 19.1229 13.9779 -1.6043 -7.9880 22.6776 -2.0250 -14.4103 -35.2388 -2.3413 9.5435 -27.5106 1.8023 2.1497 2.5398 -2.4602 3.0082 -4.3925 -3.7993 1.4156 -5.7604 15.3779 8.9708 -10.7804 -20.2638 15.4899 16.8239 -7.5339 7.1970 9.9769 -0.0000 0.0000 0.0000 3.1587 15.3369 -36.2613 12.5302 -20.5951 -2.2854 -0.0000 -0.0000 9.4065 44.3043 10.7659 10.3324 -7.1250 0.0000 -0.0000 15.9625 44.2551 -0.3015 -0.0000 0.0000 0.0000 3.6775 -13.5169 -33.8374 -15.3020 24.5652 -3.3505 0.0000 -0.0000 -12.2805 -33.8836 2.0930 -1.4050 7.1250 -0.0000 -0.0000 -5.6062 -27.4466 -2.4018
5.8973 15.0882 1.7913 185.2510 16.1403 175.5770 0.0000 0.0000 0.0000 -21.9048 -12.8535 15.7715 1.8427 8.5304 24.3370 6.2744 14.3603 -53.0073 1.0135 6.4051 17.9644 0.0000 0.0000 0.0000 31.7941 19.3524 14.0366 -1.6233 -8.0329 22.8141 -2.0360 -14.3220 -35.2294 -2.3894 9.6341 -27.7996 1.8400 2.2143 2.5736 -2.5103 3.0943 -4.3783 -3.8798 1.4555 -5.7538 15.3506 8.8705 -10.7599 -20.1252 15.4472 17.2921 -7.5008 7.1893 10.1092 0.0000 -0.0000 0.0000 2.7575 15.5748 -36.9647 12.5576 -20.6356 -2.2950 -0.0000 -0.0000 9.0023 43.9893 11.1309 10.5564 -7.1250 0.0000 -0.0000 15.7281 44.6809 -0.1271 0.0000 -0.0000 0.0000 4.0263 -14.1862 -32.2374 -15.4823 24.8137 -3.4258 0.0000 -0.0000 -14.2402 -34.8129 2.6213 -1.8214 7.1250 -0.0000 -0.0000 -6.2686 -26.7763 -2.7879
5.8921 15.0868 1.7930 185.3270 16.5149 175.4940 0.0000 0.0000 0.0000 -21.9112 -12.6661 15.9506 1.8320 8.5071 24.2651 6.2321 14.8387 -53.0878 0.9282 6.1376 17.1843 0.0000 0.0000 0.0000 31.8431 19.3900 14.0891 -1.6312 -8.0514 22.8702 -1.9704 -14.3674 -34.9062 -2.5613 9.9485 -28.8101 1.9614 2.2610 2.6377 -2.4607 3.1605 -4.3427 -3.9024 1.4821 -5.7444 15.3593 8.9093 -10.6181 -19.9038 15.5457 17.5847 -7.4148 7.2600 10.1814 -0.0000 0.0000 0.0000 2.3395 16.1939 -36.1439 12.6707 -20.8028 -2.3350 -0.0000 -0.0000 7.2388 43.8162 11.8227 11.1218 -7.1250 0.0000 -0.0000 15.6877 45.5523 0.2193 -0.0000 0.0000 0.0000 4.8511 -12.6622 -39.0039 -15.2440 24.4849 -3.3264 0.0000 -0.0000 -7.5788 -33.4825 3.3304 -2.2005 7.1250 -0.0000 -0.0000 -5.2016 -25.9839 -2.4062
5.8876 15.0855 1.7940 185.3970 16.8182 175.4100 0.0000 0.0000 0.0000 -21.8940 -12.4938 16.0305 1.8406 8.5258 24.3230 6.0399 15.8835 -52.9423 0.6971 5.3372 14.8728 0.0000 0.0000 0.0000 31.8420 19.3169 14.1647 -1.6201 -8.0255 22.7915 -1.9542 -14.1691 -34.6591 -2.5726 9.9687 -28.8754 2.0544 2.2899 2.7035 -2.4037 3.2020 -4.3041 -3.8995 1.4980 -5.7365 15.3138 8.8707 -10.5023 -19.7617 15.5850 17.9299 -7.3611 7.2979 10.2685 -0.0000 -0.0000 0.0000 1.8767 16.7429 -35.7291 12.7917 -20.9812 -2.3782 -0.0000 -0.0000 5.9319 44.0101 12.5192 11.8270 -7.1250 0.0000 -0.0000 16.0104 46.4913 0.6044 -0.0000 -0.0000 0.0000 5.2182 -13.4301 -37.4896 -15.4949 24.8310 -3.4311 0.0000 -0.0000 -8.9801 -33.3093 2.9087 -1.9098 7.1250 -0.0000 -0.0000 -5.1045 -26.4939 -2.2999
5.8820 15.0846 1.7937 185.5910 17.0036 175.4620 0.0000 0.0000 0.0000 -21.7333 -12.4270 15.9869 1.8580 8.5637 24.4399 6.0960 15.8427 -53.1124 0.6997 5.3468 14.9005 0.0000 0.0000 0.0000 31.8092 19.0037 14.0293 -1.6009 -7.9799 22.6530 -1.9133 -13.9251 -34.2368 -2.6306 10.0717 -29.2091 2.2954 2.3083 2.6603 -2.3562 3.2383 -4.2910 -3.9843 1.5064 -5.6855 15.1984 8.7221 -10.4311 -19.5188 15.4285 18.3092 -7.2925 7.2406 10.3198 -0.0000 -0.0000 0.0000 1.4795 17.1724 -35.4893 12.8912 -21.1275 -2.4139 -0.0000 -0.0000 4.8238 44.3066 13.0912 12.4667 -7.1250 0.0000 -0.0000 16.4205 47.2894 0.9522 -0.0000 -0.0000 0.0000 5.0742 -16.1063 -28.8550 -16.1559 25.7315 -3.7134 0.0000 -0.0000 -17.4292 -34.9417 2.0082 -1.4026 7.1250 -0.0000 -0.0000 -6.4221 -27.5135 -2.7450
5.8766 15.0848 1.7954 186.0260 17.2095 175.6360 0.0000 0.0000 0.0000 -21.2666 -12.3179 15.8771 1.8694 8.5885 24.5165 6.3969 14.6275 -53.5489 0.9584 6.2339 17.4646 0.0000 0.0000 0.0000 32.0266 18.7311 13.8235 -1.5884 -7.9502 22.5630 -1.8620 -13.7115 -33.7762 -2.7212 10.2295 -29.7231 2.7522 2.3628 2.5839 -2.2756 3.3339 -4.2852 -4.1579 1.5357 -5.6088 15.1555 8.5486 -10.3989 -19.3271 15.1974 18.6114 -7.2656 7.1450 10.3487 -0.0000 0.0000 0.0000 1.1405 17.4826 -35.2979 12.9643 -21.2349 -2.4403 -0.0000 -0.0000 4.0119 44.3609 13.3134 12.6911 -7.1250 0.0000 -0.0000 16.5199 47.5880 1.0830 -0.0000 0.0000 0.0000 5.8873 -14.4382 -35.1719 -15.5383 24.8907 -3.4493 0.0000 -0.0000 -11.2034 -34.3383 2.6352 -1.7989 7.1250 -0.0000 -0.0000 -5.9073 -26.7789 -2.6252
